<?xml version="1.0" encoding="UTF-8"?>
<svg id="Layer_1" data-name="Layer 1" xmlns="http://www.w3.org/2000/svg" viewBox="0 0 575.51 573.63">
  <defs>
    <style>
      .cls-1 {
        fill: #1a1a1a;
      }
    </style>
  </defs>
  <g>
    <path class="cls-1" d="M146.08,426.95c-12.36-13.21-18.53-31.89-18.53-56.03V212.33c0-24.13,6.17-42.81,18.53-56.03,12.35-13.21,30.17-19.82,53.44-19.82s41.08,6.61,53.44,19.82c12.35,13.22,18.53,31.89,18.53,56.03v158.6c0,24.13-6.18,42.81-18.53,56.03-12.36,13.22-30.17,19.82-53.44,19.82s-41.09-6.61-53.44-19.82Zm78-53.01V209.31c0-19.82-8.19-29.74-24.57-29.74s-24.56,9.91-24.56,29.74v164.63c0,19.83,8.19,29.74,24.56,29.74s24.57-9.91,24.57-29.74Z"/>
    <path class="cls-1" d="M303.38,140.79h70.25c24.42,0,42.23,5.68,53.44,17.02,11.21,11.35,16.81,28.81,16.81,52.36v18.53c0,31.32-10.34,51.14-31.03,59.47v.86c11.49,3.45,19.61,10.49,24.35,21.12,4.74,10.63,7.11,24.86,7.11,42.67v53.01c0,8.62,.28,15.59,.86,20.9,.57,5.32,2.01,10.56,4.31,15.73h-48.27c-1.72-4.88-2.88-9.48-3.45-13.79-.58-4.31-.86-12.07-.86-23.27v-55.16c0-13.79-2.23-23.41-6.68-28.88-4.46-5.45-12.14-8.19-23.06-8.19h-16.38v129.29h-47.41V140.79Zm64.65,129.29c9.48,0,16.59-2.44,21.33-7.33,4.74-4.88,7.11-13.07,7.11-24.57v-23.27c0-10.92-1.94-18.81-5.82-23.7-3.88-4.88-9.99-7.33-18.32-7.33h-21.55v86.19h17.24Z"/>
  </g>
  <path class="cls-1" d="M375.51,45.63c43.81,0,84.99,17.06,115.97,48.03,30.98,30.98,48.03,72.16,48.03,115.97v328H201.51c-43.81,0-84.99-17.06-115.97-48.03-30.98-30.98-48.03-72.16-48.03-115.97V45.63H375.51m0-36H1.51V373.63c0,110.46,89.54,200,200,200h374V209.63c0-110.46-89.54-200-200-200h0Z"/>
</svg>